<svg width="272" height="148" viewBox="0 0 272 148" xmlns="http://www.w3.org/2000/svg">
  <!-- Background -->
  <rect width="272" height="148" fill="#F5F0EB" rx="10"/>
  <!-- THE -->
  <text font-family="'DM Sans', sans-serif" font-size="11" font-weight="700" fill="#7A0C0C" letter-spacing="0.14em" x="10" y="24">THE</text>
  <!-- METRIC -->
  <text font-family="'Bebas Neue', sans-serif" font-size="52" fill="#1A1A2E" letter-spacing="2" x="8" y="72">METRIC</text>
  <!-- RULER -->
  <rect x="8" y="78" width="256" height="14" rx="2" fill="#EF9F27"/>
  <line x1="8"   y1="78" x2="8"   y2="92" stroke="#F5F0EB" stroke-width="1.5"/>
  <line x1="34"  y1="78" x2="34"  y2="92" stroke="#F5F0EB" stroke-width="1.5"/>
  <line x1="60"  y1="78" x2="60"  y2="92" stroke="#F5F0EB" stroke-width="1.5"/>
  <line x1="86"  y1="78" x2="86"  y2="92" stroke="#F5F0EB" stroke-width="1.5"/>
  <line x1="112" y1="78" x2="112" y2="92" stroke="#F5F0EB" stroke-width="1.5"/>
  <line x1="138" y1="78" x2="138" y2="92" stroke="#F5F0EB" stroke-width="1.5"/>
  <line x1="164" y1="78" x2="164" y2="92" stroke="#F5F0EB" stroke-width="1.5"/>
  <line x1="190" y1="78" x2="190" y2="92" stroke="#F5F0EB" stroke-width="1.5"/>
  <line x1="216" y1="78" x2="216" y2="92" stroke="#F5F0EB" stroke-width="1.5"/>
  <line x1="242" y1="78" x2="242" y2="92" stroke="#F5F0EB" stroke-width="1.5"/>
  <line x1="264" y1="78" x2="264" y2="92" stroke="#F5F0EB" stroke-width="1.5"/>
  <line x1="21"  y1="78" x2="21"  y2="86" stroke="#F5F0EB" stroke-width="1"/>
  <line x1="47"  y1="78" x2="47"  y2="86" stroke="#F5F0EB" stroke-width="1"/>
  <line x1="73"  y1="78" x2="73"  y2="86" stroke="#F5F0EB" stroke-width="1"/>
  <line x1="99"  y1="78" x2="99"  y2="86" stroke="#F5F0EB" stroke-width="1"/>
  <line x1="125" y1="78" x2="125" y2="86" stroke="#F5F0EB" stroke-width="1"/>
  <line x1="151" y1="78" x2="151" y2="86" stroke="#F5F0EB" stroke-width="1"/>
  <line x1="177" y1="78" x2="177" y2="86" stroke="#F5F0EB" stroke-width="1"/>
  <line x1="203" y1="78" x2="203" y2="86" stroke="#F5F0EB" stroke-width="1"/>
  <line x1="229" y1="78" x2="229" y2="86" stroke="#F5F0EB" stroke-width="1"/>
  <line x1="255" y1="78" x2="255" y2="86" stroke="#F5F0EB" stroke-width="1"/>
  <line x1="14"  y1="78" x2="14"  y2="83" stroke="#F5F0EB" stroke-width="0.7"/>
  <line x1="27"  y1="78" x2="27"  y2="83" stroke="#F5F0EB" stroke-width="0.7"/>
  <line x1="40"  y1="78" x2="40"  y2="83" stroke="#F5F0EB" stroke-width="0.7"/>
  <line x1="53"  y1="78" x2="53"  y2="83" stroke="#F5F0EB" stroke-width="0.7"/>
  <line x1="66"  y1="78" x2="66"  y2="83" stroke="#F5F0EB" stroke-width="0.7"/>
  <line x1="79"  y1="78" x2="79"  y2="83" stroke="#F5F0EB" stroke-width="0.7"/>
  <line x1="92"  y1="78" x2="92"  y2="83" stroke="#F5F0EB" stroke-width="0.7"/>
  <line x1="105" y1="78" x2="105" y2="83" stroke="#F5F0EB" stroke-width="0.7"/>
  <line x1="118" y1="78" x2="118" y2="83" stroke="#F5F0EB" stroke-width="0.7"/>
  <line x1="131" y1="78" x2="131" y2="83" stroke="#F5F0EB" stroke-width="0.7"/>
  <line x1="144" y1="78" x2="144" y2="83" stroke="#F5F0EB" stroke-width="0.7"/>
  <line x1="157" y1="78" x2="157" y2="83" stroke="#F5F0EB" stroke-width="0.7"/>
  <line x1="170" y1="78" x2="170" y2="83" stroke="#F5F0EB" stroke-width="0.7"/>
  <line x1="183" y1="78" x2="183" y2="83" stroke="#F5F0EB" stroke-width="0.7"/>
  <line x1="196" y1="78" x2="196" y2="83" stroke="#F5F0EB" stroke-width="0.7"/>
  <line x1="209" y1="78" x2="209" y2="83" stroke="#F5F0EB" stroke-width="0.7"/>
  <line x1="222" y1="78" x2="222" y2="83" stroke="#F5F0EB" stroke-width="0.7"/>
  <line x1="235" y1="78" x2="235" y2="83" stroke="#F5F0EB" stroke-width="0.7"/>
  <line x1="248" y1="78" x2="248" y2="83" stroke="#F5F0EB" stroke-width="0.7"/>
  <line x1="261" y1="78" x2="261" y2="83" stroke="#F5F0EB" stroke-width="0.7"/>
  <!-- CONVERT -->
  <text font-family="'Bebas Neue', sans-serif" font-size="52" fill="#B82020" letter-spacing="2" x="8" y="138">CONVERT</text>
</svg>
